# xmcd
# Copyright (C) 1995-1998 Ti Kan
#
# Track frame offsets:
#       150
#       15894
#       38136
#       53049
#       64706
#       77670
#       95721
#       108340
#       130662
#       149647
#       171380
#
# Disc length: 2640 seconds
#
# Revision: 1
# Processed by: cddbd v1.5.2PL0 Copyright (c) Steve Scherf et al.
# Submitted via: CD-Import v1.0
#
DISCID=8e0a4e0b
DTITLE=Sachofender - Travel (Live Tracks)
DYEAR=05
DGENRE=
TTITLE0=Blues 33
TTITLE1=Nothing Like You
TTITLE2=Wind Is Crashing
TTITLE3=Love Is
TTITLE4=Poor
TTITLE5=Kitchen
TTITLE6=Rock'n'rollshower
TTITLE7=Wake Up
TTITLE8=Drive My Car
TTITLE9=Traum
TTITLE10=See Yourself
EXTD=
EXTT0=
EXTT1=
EXTT2=
EXTT3=
EXTT4=
EXTT5=
EXTT6=
EXTT7=
EXTT8=
EXTT9=
EXTT10=
PLAYORDER=
